<svg width="24" height="24" viewBox="0 0 24 24" fill="none" xmlns="http://www.w3.org/2000/svg">
<path d="M19.6634 18.8539H19.0422V9.74677C19.0422 5.96731 16.3426 2.8441 12.8303 2.32445V1.28249C12.8303 0.690524 12.3669 0.21106 11.7949 0.21106C11.2229 0.21106 10.7596 0.690524 10.7596 1.28249V2.32445C7.24723 2.8441 4.54761 5.96731 4.54761 9.74677V18.8539H3.92641C3.46828 18.8539 3.09814 19.237 3.09814 19.7111V20.5682C3.09814 20.6861 3.19132 20.7825 3.30521 20.7825H8.896C8.896 22.4378 10.1953 23.7825 11.7949 23.7825C13.3945 23.7825 14.6938 22.4378 14.6938 20.7825H20.2846C20.3985 20.7825 20.4917 20.6861 20.4917 20.5682V19.7111C20.4917 19.237 20.1216 18.8539 19.6634 18.8539ZM11.7949 22.0682C11.109 22.0682 10.5525 21.4923 10.5525 20.7825H13.0373C13.0373 21.4923 12.4808 22.0682 11.7949 22.0682ZM6.4112 18.8539V9.74677C6.4112 8.25749 6.97028 6.85927 7.98749 5.8066C9.0047 4.75392 10.3558 4.17535 11.7949 4.17535C13.234 4.17535 14.5851 4.75392 15.6023 5.8066C16.6196 6.85927 17.1786 8.25749 17.1786 9.74677V18.8539H6.4112Z" fill="#718096"/>
</svg>
