<svg width="24" height="24" viewBox="0 0 24 24" fill="none" xmlns="http://www.w3.org/2000/svg">
<g clip-path="url(#clip0_2469_326)">
<path d="M12.3462 0C5.94267 0 0.750488 5.37321 0.750488 12C0.750488 18.6268 5.94267 24 12.3462 24C18.7497 24 23.9419 18.6268 23.9419 12C23.9419 5.37321 18.7497 0 12.3462 0ZM12.3462 21.9643C7.02977 21.9643 2.71762 17.5018 2.71762 12C2.71762 6.49821 7.02977 2.03571 12.3462 2.03571C17.6626 2.03571 21.9748 6.49821 21.9748 12C21.9748 17.5018 17.6626 21.9643 12.3462 21.9643Z" fill="#718096"/>
<path d="M11.1034 7.28571C11.1034 7.62671 11.2343 7.95373 11.4673 8.19485C11.7003 8.43597 12.0163 8.57143 12.3458 8.57143C12.6753 8.57143 12.9913 8.43597 13.2243 8.19485C13.4573 7.95373 13.5882 7.62671 13.5882 7.28571C13.5882 6.94472 13.4573 6.61769 13.2243 6.37658C12.9913 6.13546 12.6753 6 12.3458 6C12.0163 6 11.7003 6.13546 11.4673 6.37658C11.2343 6.61769 11.1034 6.94472 11.1034 7.28571ZM12.967 10.2857H11.7246C11.6107 10.2857 11.5175 10.3821 11.5175 10.5V17.7857C11.5175 17.9036 11.6107 18 11.7246 18H12.967C13.0809 18 13.174 17.9036 13.174 17.7857V10.5C13.174 10.3821 13.0809 10.2857 12.967 10.2857Z" fill="#718096"/>
</g>
<defs>
<clipPath id="clip0_2469_326">
<rect width="23.1914" height="24" fill="white" transform="translate(0.750488)"/>
</clipPath>
</defs>
</svg>
