<svg width="34" height="34" viewBox="0 0 34 34" fill="none" xmlns="http://www.w3.org/2000/svg">
<g clip-path="url(#clip0_2469_312)">
<rect x="1" y="1" width="32" height="32" fill="#7B5AFF"/>
<path d="M10.9307 19.2334V20H7.37598V19.2334H10.9307ZM7.56152 12.8906V20H6.61914V12.8906H7.56152ZM11.6338 17.417V17.3047C11.6338 16.9238 11.6891 16.5706 11.7998 16.2451C11.9105 15.9163 12.07 15.6315 12.2783 15.3906C12.4867 15.1465 12.7389 14.9577 13.0352 14.8242C13.3314 14.6875 13.6634 14.6191 14.0312 14.6191C14.4023 14.6191 14.736 14.6875 15.0322 14.8242C15.3317 14.9577 15.5856 15.1465 15.7939 15.3906C16.0055 15.6315 16.1667 15.9163 16.2773 16.2451C16.388 16.5706 16.4434 16.9238 16.4434 17.3047V17.417C16.4434 17.7979 16.388 18.151 16.2773 18.4766C16.1667 18.8021 16.0055 19.0869 15.7939 19.3311C15.5856 19.5719 15.3333 19.7607 15.0371 19.8975C14.7441 20.0309 14.4121 20.0977 14.041 20.0977C13.6699 20.0977 13.3363 20.0309 13.04 19.8975C12.7438 19.7607 12.4899 19.5719 12.2783 19.3311C12.07 19.0869 11.9105 18.8021 11.7998 18.4766C11.6891 18.151 11.6338 17.7979 11.6338 17.417ZM12.5371 17.3047V17.417C12.5371 17.6807 12.568 17.9297 12.6299 18.1641C12.6917 18.3952 12.7845 18.6003 12.9082 18.7793C13.0352 18.9583 13.193 19.0999 13.3818 19.2041C13.5706 19.305 13.7904 19.3555 14.041 19.3555C14.2884 19.3555 14.5049 19.305 14.6904 19.2041C14.8792 19.0999 15.0355 18.9583 15.1592 18.7793C15.2829 18.6003 15.3757 18.3952 15.4375 18.1641C15.5026 17.9297 15.5352 17.6807 15.5352 17.417V17.3047C15.5352 17.0443 15.5026 16.7985 15.4375 16.5674C15.3757 16.333 15.2812 16.1263 15.1543 15.9473C15.0306 15.765 14.8743 15.6217 14.6855 15.5176C14.5 15.4134 14.2819 15.3613 14.0312 15.3613C13.7839 15.3613 13.5658 15.4134 13.377 15.5176C13.1914 15.6217 13.0352 15.765 12.9082 15.9473C12.7845 16.1263 12.6917 16.333 12.6299 16.5674C12.568 16.7985 12.5371 17.0443 12.5371 17.3047ZM20.999 14.7168H21.8193V19.8877C21.8193 20.3532 21.7249 20.7503 21.5361 21.0791C21.3473 21.4079 21.0837 21.6569 20.7451 21.8262C20.4098 21.9987 20.0225 22.085 19.583 22.085C19.4007 22.085 19.1859 22.0557 18.9385 21.9971C18.6943 21.9417 18.4535 21.8457 18.2158 21.709C17.9814 21.5755 17.7845 21.3949 17.625 21.167L18.0986 20.6299C18.32 20.8968 18.5511 21.0824 18.792 21.1865C19.0361 21.2907 19.277 21.3428 19.5146 21.3428C19.8011 21.3428 20.0485 21.2891 20.2568 21.1816C20.4652 21.0742 20.6263 20.9147 20.7402 20.7031C20.8574 20.4948 20.916 20.2376 20.916 19.9316V15.8789L20.999 14.7168ZM17.3613 17.417V17.3145C17.3613 16.9108 17.4085 16.5446 17.5029 16.2158C17.6006 15.8838 17.7389 15.599 17.918 15.3613C18.1003 15.1237 18.32 14.9414 18.5771 14.8145C18.8343 14.6842 19.124 14.6191 19.4463 14.6191C19.7783 14.6191 20.068 14.6777 20.3154 14.7949C20.5661 14.9089 20.7777 15.0765 20.9502 15.2979C21.126 15.516 21.2643 15.7796 21.3652 16.0889C21.4661 16.3981 21.5361 16.748 21.5752 17.1387V17.5879C21.5394 17.9753 21.4694 18.3236 21.3652 18.6328C21.2643 18.9421 21.126 19.2057 20.9502 19.4238C20.7777 19.6419 20.5661 19.8096 20.3154 19.9268C20.0648 20.0407 19.7718 20.0977 19.4365 20.0977C19.1208 20.0977 18.8343 20.0309 18.5771 19.8975C18.3232 19.764 18.1051 19.5768 17.9229 19.3359C17.7406 19.0951 17.6006 18.8118 17.5029 18.4863C17.4085 18.1576 17.3613 17.8011 17.3613 17.417ZM18.2646 17.3145V17.417C18.2646 17.6807 18.2907 17.9281 18.3428 18.1592C18.3981 18.3903 18.4811 18.5938 18.5918 18.7695C18.7057 18.9453 18.8506 19.0837 19.0264 19.1846C19.2021 19.2822 19.4121 19.3311 19.6562 19.3311C19.9557 19.3311 20.2031 19.2676 20.3984 19.1406C20.5938 19.0137 20.7484 18.846 20.8623 18.6377C20.9795 18.4294 21.0706 18.2031 21.1357 17.959V16.7822C21.0999 16.6032 21.0446 16.4307 20.9697 16.2646C20.8981 16.0954 20.8037 15.9456 20.6865 15.8154C20.5726 15.682 20.431 15.5762 20.2617 15.498C20.0924 15.4199 19.8939 15.3809 19.666 15.3809C19.4186 15.3809 19.2054 15.4329 19.0264 15.5371C18.8506 15.638 18.7057 15.778 18.5918 15.957C18.4811 16.1328 18.3981 16.3379 18.3428 16.5723C18.2907 16.8034 18.2646 17.0508 18.2646 17.3145ZM22.9521 17.417V17.3047C22.9521 16.9238 23.0075 16.5706 23.1182 16.2451C23.2288 15.9163 23.3883 15.6315 23.5967 15.3906C23.805 15.1465 24.0573 14.9577 24.3535 14.8242C24.6497 14.6875 24.9818 14.6191 25.3496 14.6191C25.7207 14.6191 26.0544 14.6875 26.3506 14.8242C26.6501 14.9577 26.904 15.1465 27.1123 15.3906C27.3239 15.6315 27.485 15.9163 27.5957 16.2451C27.7064 16.5706 27.7617 16.9238 27.7617 17.3047V17.417C27.7617 17.7979 27.7064 18.151 27.5957 18.4766C27.485 18.8021 27.3239 19.0869 27.1123 19.3311C26.904 19.5719 26.6517 19.7607 26.3555 19.8975C26.0625 20.0309 25.7305 20.0977 25.3594 20.0977C24.9883 20.0977 24.6546 20.0309 24.3584 19.8975C24.0622 19.7607 23.8083 19.5719 23.5967 19.3311C23.3883 19.0869 23.2288 18.8021 23.1182 18.4766C23.0075 18.151 22.9521 17.7979 22.9521 17.417ZM23.8555 17.3047V17.417C23.8555 17.6807 23.8864 17.9297 23.9482 18.1641C24.0101 18.3952 24.1029 18.6003 24.2266 18.7793C24.3535 18.9583 24.5114 19.0999 24.7002 19.2041C24.889 19.305 25.1087 19.3555 25.3594 19.3555C25.6068 19.3555 25.8232 19.305 26.0088 19.2041C26.1976 19.0999 26.3538 18.9583 26.4775 18.7793C26.6012 18.6003 26.694 18.3952 26.7559 18.1641C26.821 17.9297 26.8535 17.6807 26.8535 17.417V17.3047C26.8535 17.0443 26.821 16.7985 26.7559 16.5674C26.694 16.333 26.5996 16.1263 26.4727 15.9473C26.349 15.765 26.1927 15.6217 26.0039 15.5176C25.8184 15.4134 25.6003 15.3613 25.3496 15.3613C25.1022 15.3613 24.8841 15.4134 24.6953 15.5176C24.5098 15.6217 24.3535 15.765 24.2266 15.9473C24.1029 16.1263 24.0101 16.333 23.9482 16.5674C23.8864 16.7985 23.8555 17.0443 23.8555 17.3047Z" fill="white"/>
</g>
<rect x="1" y="1" width="32" height="32" stroke="white" stroke-dasharray="2 2"/>
<defs>
<clipPath id="clip0_2469_312">
<rect x="1" y="1" width="32" height="32" fill="white"/>
</clipPath>
</defs>
</svg>
